<!DOCTYPE svg PUBLIC "-//W3C//DTD SVG 1.1//EN" "http://www.w3.org/Graphics/SVG/1.1/DTD/svg11.dtd">
<!-- Uploaded to: SVG Repo, www.svgrepo.com, Transformed by: SVG Repo Mixer Tools -->
<svg fill="#ffffff" width="100px" height="100px" viewBox="0 0 512 512" enable-background="new 0 0 512 512" id="Layer_1" version="1.1" xml:space="preserve" xmlns="http://www.w3.org/2000/svg" xmlns:xlink="http://www.w3.org/1999/xlink" stroke="#ffffff">
<g id="SVGRepo_bgCarrier" stroke-width="0"/>
<g id="SVGRepo_tracerCarrier" stroke-linecap="round" stroke-linejoin="round"/>
<g id="SVGRepo_iconCarrier"> <g> <path d="M97.73,377.029H73.514c-5.014,0-9.081,4.068-9.081,9.081s4.068,9.081,9.081,9.081H97.73c5.014,0,9.081-4.068,9.081-9.081 S102.744,377.029,97.73,377.029z"/> <path d="M97.73,425.461H73.514c-5.014,0-9.081,4.068-9.081,9.081s4.068,9.081,9.081,9.081H97.73c5.014,0,9.081-4.068,9.081-9.081 S102.744,425.461,97.73,425.461z"/> <path d="M170.379,377.029h-12.108c-5.014,0-9.081,4.068-9.081,9.081s4.068,9.081,9.081,9.081h12.108 c5.014,0,9.081-4.068,9.081-9.081S175.393,377.029,170.379,377.029z"/> <path d="M170.379,425.461h-12.108c-5.014,0-9.081,4.068-9.081,9.081s4.068,9.081,9.081,9.081h12.108 c5.014,0,9.081-4.068,9.081-9.081S175.393,425.461,170.379,425.461z"/> <path d="M97.73,328.596H73.514c-5.014,0-9.081,4.068-9.081,9.081s4.068,9.081,9.081,9.081H97.73c5.014,0,9.081-4.068,9.081-9.081 S102.744,328.596,97.73,328.596z"/> <path d="M230.92,292.271c-5.014,0-9.081,4.068-9.081,9.081v17.559h-66.595v-78.1c0-5.014-4.068-9.081-9.081-9.081 c-5.014,0-9.081,4.068-9.081,9.081v27.243H34.162v-51.46c0-5.014-4.068-9.081-9.081-9.081S16,211.582,16,216.595v260.326 c0,8.348,6.787,15.135,15.135,15.135h193.731c8.348,0,15.135-6.787,15.135-15.135V301.353 C240.002,296.339,235.934,292.271,230.92,292.271z M221.839,473.894H34.162V286.217h102.92v50.857h84.757V473.894z"/> <path d="M485.193,16.349H107.621c-3.843,0-7.426,2.069-9.383,5.439L65.627,78.853c-1.91,3.334-1.904,7.473,0.024,10.808 c1.927,3.323,5.51,5.392,9.353,5.392h113.857c-0.266,0.851-0.532,35.591-0.532,35.591h-85.083c-8.047,0-14.597,6.551-14.597,14.603 v33.865c0,8.052,6.551,14.603,14.597,14.603h182.699c8.047,0,14.597-6.551,14.597-14.603v-33.865 c0-8.052-6.551-14.603-14.597-14.603h-79.454c0,0-0.272-34.74-0.532-35.591h160.936v400.599h18.162v-67.174l42.379,42.379v24.796 h18.162V95.052h39.594c5.96,0,10.807-4.848,10.807-10.819V27.156C496,21.197,491.152,16.349,485.193,16.349z M282.38,175.553 H106.811v-26.747H282.38V175.553z M385.057,153.76l34.527,34.527l-34.527,34.527V153.76z M385.057,243.697l34.527,34.527 l-34.527,34.527V243.697z M400.305,233.256l27.131-27.131v54.262L400.305,233.256z M427.436,170.45l-27.131-27.131l27.131-27.131 V170.45z M373.919,76.89l34.303-34.303l34.297,34.303H373.919z M213.621,46.915l29.975,29.975h-59.944L213.621,46.915z M166.058,68.802l-34.291-34.291h68.576L166.058,68.802z M226.906,34.511h68.57l-34.285,34.291L226.906,34.511z M308.76,46.915 l29.975,29.975h-59.95L308.76,46.915z M356.33,68.802l-34.291-34.291h68.576L356.33,68.802z M110.134,37.58 c0.438,1.058,38.329,39.31,38.329,39.31H87.668L110.134,37.58z M422.89,95.052l-37.832,37.826V95.052H422.89z M385.057,333.627 l36.076,36.07l-36.076,37.714V333.627z M427.436,445.167l-27.273-27.273l27.273-28.509V445.167z M400.305,323.192l27.131-27.131 v54.256L400.305,323.192z M477.838,76.89h-9.755c-0.095-0.106-42.255-42.379-42.255-42.379h52.01V76.89z"/> </g> </g>
</svg>