<!DOCTYPE svg PUBLIC "-//W3C//DTD SVG 1.1//EN" "http://www.w3.org/Graphics/SVG/1.1/DTD/svg11.dtd">
<!-- Uploaded to: SVG Repo, www.svgrepo.com, Transformed by: SVG Repo Mixer Tools -->
<svg width="800px" height="800px" viewBox="0 0 24 24" xmlns="http://www.w3.org/2000/svg" fill="#000000">
<g id="SVGRepo_bgCarrier" stroke-width="0"/>
<g id="SVGRepo_tracerCarrier" stroke-linecap="round" stroke-linejoin="round"/>
<g id="SVGRepo_iconCarrier"> <defs> <style>.cls-1{fill:none;stroke:#ffffff;stroke-linecap:square;stroke-miterlimit:10;stroke-width:0.288;}</style> </defs> <g id="human_resource" data-name="human resource"> <path class="cls-1" d="M9.14,22.5V19.68a0,0,0,0,0-.05,0H7.27a2,2,0,0,1-1.95-2V14.86l-1.91-.95,1.9-3.81V9.47a7.86,7.86,0,0,1,7.13-8,7.61,7.61,0,0,1,8.14,7.62,10.49,10.49,0,0,1-2.86,7.2V22.5"/> <circle class="cls-1" cx="12.95" cy="10.09" r="2.86"/> <line class="cls-1" x1="12.95" y1="6.27" x2="12.95" y2="7.23"/> <line class="cls-1" x1="12.95" y1="13.91" x2="12.95" y2="12.95"/> <line class="cls-1" x1="9.65" y1="8.18" x2="10.47" y2="8.66"/> <line class="cls-1" x1="16.26" y1="12" x2="15.43" y2="11.52"/> <line class="cls-1" x1="16.26" y1="8.18" x2="15.43" y2="8.66"/> <line class="cls-1" x1="9.65" y1="12" x2="10.47" y2="11.52"/> </g> </g>
</svg>