<!DOCTYPE svg PUBLIC "-//W3C//DTD SVG 1.1//EN" "http://www.w3.org/Graphics/SVG/1.1/DTD/svg11.dtd">
<!-- Uploaded to: SVG Repo, www.svgrepo.com, Transformed by: SVG Repo Mixer Tools -->
<svg width="100px" height="100px" viewBox="0 0 63.98 63.98" xmlns="http://www.w3.org/2000/svg" fill="#ffffff" stroke="#ffffff" stroke-width="0.0006398">
<g id="SVGRepo_bgCarrier" stroke-width="0"/>
<g id="SVGRepo_tracerCarrier" stroke-linecap="round" stroke-linejoin="round" stroke="#CCCCCC" stroke-width="2.6871599999999995"/>
<g id="SVGRepo_iconCarrier"> <g id="XMLID_5_" transform="translate(-180.795 -179.835)"> <g id="Group_139" data-name="Group 139"> <path id="Path_113" data-name="Path 113" d="M243.885,233.1a5.7,5.7,0,0,1-4.81,8.74h-42.34a8.77,8.77,0,0,1-11.88-8.19v-32.66H182.8a2,2,0,0,1-2-2v-5.72a2.006,2.006,0,0,1,2-2h21.7a2.006,2.006,0,0,1,2,2v5.72a2,2,0,0,1-2,2h-2.06v15.67l6.34-9.45v-17.46h-2.69a2.013,2.013,0,0,1-.78-.16,1.987,1.987,0,0,1-1.22-1.84v-5.91a2,2,0,0,1,2-2h23.12a2,2,0,0,1,2,2v5.91a2,2,0,0,1-2,2h-2.69V207.2l17.34,25.85C243.865,233.065,243.875,233.085,243.885,233.1Zm-3.33,3.86a1.676,1.676,0,0,0-.04-1.7l-8.74-13.02h-28.26l-1.08,1.6v9.81a8.724,8.724,0,0,1-1.07,4.19h37.71A1.654,1.654,0,0,0,240.555,236.955Zm-11.46-18.72-6.25-9.31a2.012,2.012,0,0,1-.33-1.12v-20.06a1.993,1.993,0,0,1,2-2h2.69v-1.91h-19.12v1.91h2.69a1.993,1.993,0,0,1,2,2v20.06a2.012,2.012,0,0,1-.33,1.12l-6.25,9.31Zm-26.6-21.25v-1.72h-17.7v1.72h2.06a2.006,2.006,0,0,1,2,2v9.66h9.58v-9.66a2.006,2.006,0,0,1,2-2Zm-4.06,36.66v-21h-9.58v21a4.79,4.79,0,0,0,9.58,0Z" fill="#ffffff"/> <path id="Path_114" data-name="Path 114" d="M240.515,235.255a1.676,1.676,0,0,1,.04,1.7,1.654,1.654,0,0,1-1.48.88h-37.71a8.724,8.724,0,0,0,1.07-4.19v-9.81l1.08-1.6h28.26Z" fill="#ffffff"/> <path id="Path_115" data-name="Path 115" d="M222.845,208.925l6.25,9.31H206.2l6.25-9.31a2.012,2.012,0,0,0,.33-1.12v-20.06a1.993,1.993,0,0,0-2-2h-2.69v-1.91h19.12v1.91h-2.69a1.993,1.993,0,0,0-2,2v20.06A2.012,2.012,0,0,0,222.845,208.925Z" fill="#ffffff"/> <path id="Path_116" data-name="Path 116" d="M202.495,195.265v1.72h-2.06a2.006,2.006,0,0,0-2,2v9.66h-9.58v-9.66a2.006,2.006,0,0,0-2-2h-2.06v-1.72Z" fill="#ffffff"/> <path id="Path_117" data-name="Path 117" d="M198.435,212.645v21a4.79,4.79,0,0,1-9.58,0v-21Z" fill="#ffffff"/> </g> </g> </g>
</svg>