<!DOCTYPE svg PUBLIC "-//W3C//DTD SVG 1.1//EN" "http://www.w3.org/Graphics/SVG/1.1/DTD/svg11.dtd">
<!-- Uploaded to: SVG Repo, www.svgrepo.com, Transformed by: SVG Repo Mixer Tools -->
<svg fill="#ffffff" height="100px" width="100px" version="1.1" id="Capa_1" xmlns="http://www.w3.org/2000/svg" xmlns:xlink="http://www.w3.org/1999/xlink" viewBox="0 0 470 470" xml:space="preserve" stroke="#ffffff">
<g id="SVGRepo_bgCarrier" stroke-width="0"/>
<g id="SVGRepo_tracerCarrier" stroke-linecap="round" stroke-linejoin="round"/>
<g id="SVGRepo_iconCarrier"> <g> <path d="M401.17,68.83C356.784,24.444,297.771,0,235,0S113.216,24.444,68.83,68.83S0,172.229,0,235s24.444,121.784,68.83,166.17 S172.229,470,235,470s121.784-24.444,166.17-68.83S470,297.771,470,235S445.556,113.216,401.17,68.83z M235,455 c-121.309,0-220-98.691-220-220S113.691,15,235,15s220,98.691,220,220S356.309,455,235,455z"/> <path d="M225.918,257.477c-1.398-2.042-3.713-3.262-6.188-3.262h-73.136c-2.549,0-4.923,1.294-6.304,3.437s-1.579,4.839-0.527,7.16 c15.872,35.011,49.779,58.393,87.736,61.134v41.031c0,4.143,3.357,7.5,7.5,7.5s7.5-3.357,7.5-7.5v-41.031 c37.957-2.741,71.864-26.123,87.736-61.134c1.052-2.321,0.854-5.018-0.527-7.16s-3.755-3.437-6.304-3.437H250.27 c-2.475,0-4.789,1.22-6.188,3.262l-1.582,2.31v-15.473c31.499-2.704,59.53-22.268,72.736-51.4c1.052-2.321,0.854-5.019-0.527-7.16 c-1.381-2.143-3.755-3.437-6.304-3.437h-60.727c-1.952,0-3.797,0.769-5.179,2.091v-12.059 c25.038-2.648,47.194-18.409,57.736-41.662c1.052-2.321,0.854-5.019-0.527-7.16c-1.381-2.143-3.755-3.437-6.304-3.437h-48.317 c-0.896,0-1.77,0.165-2.588,0.466v-17.532c0-4.143-3.357-7.5-7.5-7.5s-7.5,3.357-7.5,7.5v17.532 c-0.818-0.301-1.692-0.466-2.588-0.466h-48.317c-2.549,0-4.923,1.294-6.304,3.437c-1.381,2.142-1.579,4.839-0.527,7.16 c10.542,23.253,32.698,39.014,57.736,41.662v12.059c-1.382-1.323-3.227-2.091-5.179-2.091h-60.727 c-2.549,0-4.923,1.294-6.304,3.437c-1.381,2.142-1.579,4.839-0.527,7.16c13.207,29.133,41.237,48.697,72.736,51.4v15.473 L225.918,257.477z M254.223,269.215h56.658c-16.224,25.847-44.859,42.003-75.881,42.003s-59.657-16.156-75.881-42.003h56.658 l12.995,18.97c0.007,0.01,0.014,0.021,0.021,0.031l0.019,0.027c0.013,0.02,0.03,0.036,0.043,0.055 c0.144,0.206,0.298,0.402,0.461,0.592c0.058,0.067,0.118,0.13,0.178,0.195c0.132,0.144,0.27,0.281,0.412,0.414 c0.067,0.062,0.132,0.124,0.201,0.183c0.167,0.144,0.341,0.279,0.521,0.409c0.044,0.032,0.086,0.067,0.131,0.098 c0.232,0.159,0.473,0.305,0.723,0.438c0.035,0.019,0.071,0.034,0.106,0.051c0.213,0.109,0.431,0.208,0.656,0.297 c0.07,0.027,0.141,0.052,0.211,0.077c0.195,0.071,0.394,0.133,0.597,0.188c0.08,0.021,0.159,0.043,0.24,0.062 c0.204,0.047,0.411,0.084,0.621,0.115c0.076,0.011,0.151,0.026,0.228,0.035c0.282,0.032,0.568,0.053,0.859,0.053 s0.576-0.021,0.859-0.053c0.077-0.009,0.152-0.023,0.228-0.035c0.21-0.031,0.417-0.068,0.621-0.115 c0.081-0.019,0.16-0.041,0.24-0.062c0.203-0.054,0.401-0.117,0.596-0.188c0.071-0.025,0.141-0.05,0.211-0.077 c0.224-0.089,0.443-0.188,0.656-0.297c0.035-0.018,0.071-0.033,0.106-0.051c0.25-0.133,0.491-0.279,0.723-0.438 c0.045-0.031,0.087-0.066,0.131-0.098c0.179-0.129,0.353-0.265,0.52-0.409c0.069-0.06,0.135-0.122,0.202-0.184 c0.143-0.132,0.28-0.27,0.412-0.413c0.06-0.064,0.12-0.128,0.178-0.195c0.163-0.19,0.317-0.387,0.461-0.592 c0.013-0.02,0.03-0.036,0.043-0.055l0.019-0.027c0.007-0.011,0.014-0.021,0.021-0.031L254.223,269.215z M189.705,135.09h31.254 l7.813,11.406c0.007,0.01,0.014,0.021,0.021,0.031l0.019,0.027c0.013,0.019,0.029,0.036,0.042,0.055 c0.144,0.206,0.299,0.404,0.463,0.594c0.056,0.065,0.115,0.127,0.173,0.19c0.135,0.146,0.274,0.287,0.42,0.421 c0.064,0.06,0.127,0.119,0.193,0.176c0.172,0.148,0.351,0.288,0.536,0.42c0.04,0.028,0.077,0.06,0.117,0.087 c0.234,0.161,0.477,0.308,0.729,0.442c0.03,0.016,0.061,0.029,0.091,0.044c0.218,0.112,0.442,0.213,0.672,0.304 c0.067,0.026,0.135,0.049,0.202,0.074c0.198,0.072,0.4,0.135,0.606,0.19c0.078,0.021,0.155,0.042,0.234,0.061 c0.205,0.048,0.414,0.085,0.626,0.116c0.075,0.011,0.149,0.025,0.224,0.034c0.282,0.032,0.568,0.053,0.859,0.053 s0.577-0.021,0.859-0.053c0.076-0.009,0.15-0.023,0.224-0.034c0.212-0.031,0.42-0.068,0.626-0.116 c0.079-0.019,0.156-0.04,0.235-0.061c0.206-0.055,0.407-0.119,0.605-0.19c0.068-0.024,0.135-0.047,0.202-0.074 c0.23-0.091,0.454-0.192,0.672-0.304c0.03-0.016,0.061-0.028,0.091-0.044c0.252-0.134,0.495-0.281,0.729-0.442 c0.04-0.027,0.077-0.059,0.117-0.087c0.185-0.132,0.364-0.272,0.535-0.42c0.066-0.057,0.13-0.117,0.194-0.177 c0.146-0.135,0.285-0.275,0.419-0.42c0.058-0.063,0.117-0.125,0.173-0.19c0.164-0.19,0.319-0.388,0.463-0.594 c0.013-0.019,0.029-0.036,0.042-0.055l0.019-0.027c0.007-0.011,0.014-0.021,0.021-0.031l7.813-11.406h31.254 c-10.559,14.053-27.291,22.659-45.295,22.659S200.264,149.143,189.705,135.09z M174.339,197.316h44.029l10.404,15.188 c0.007,0.01,0.014,0.021,0.021,0.031l0.019,0.027c0.013,0.019,0.029,0.036,0.042,0.055c0.144,0.206,0.299,0.404,0.463,0.594 c0.056,0.065,0.115,0.127,0.173,0.19c0.135,0.146,0.274,0.287,0.42,0.421c0.064,0.06,0.127,0.119,0.193,0.176 c0.172,0.148,0.351,0.288,0.536,0.42c0.04,0.028,0.077,0.06,0.117,0.087c0.234,0.161,0.477,0.308,0.729,0.442 c0.03,0.016,0.061,0.029,0.091,0.044c0.218,0.112,0.442,0.213,0.672,0.304c0.067,0.026,0.135,0.049,0.202,0.074 c0.198,0.072,0.4,0.135,0.606,0.19c0.078,0.021,0.155,0.042,0.234,0.061c0.205,0.048,0.414,0.085,0.626,0.116 c0.075,0.011,0.149,0.025,0.224,0.034c0.282,0.032,0.568,0.053,0.859,0.053s0.577-0.021,0.859-0.053 c0.076-0.009,0.15-0.023,0.224-0.034c0.212-0.031,0.42-0.068,0.626-0.116c0.079-0.019,0.156-0.04,0.235-0.061 c0.206-0.055,0.407-0.119,0.605-0.19c0.068-0.024,0.135-0.047,0.202-0.074c0.23-0.091,0.454-0.192,0.672-0.304 c0.03-0.016,0.061-0.028,0.091-0.044c0.252-0.134,0.495-0.281,0.729-0.442c0.04-0.027,0.077-0.059,0.117-0.087 c0.185-0.132,0.364-0.272,0.535-0.42c0.066-0.057,0.13-0.117,0.194-0.177c0.146-0.135,0.285-0.275,0.419-0.42 c0.058-0.063,0.117-0.125,0.173-0.19c0.164-0.19,0.319-0.388,0.463-0.594c0.013-0.019,0.029-0.036,0.042-0.055l0.019-0.027 c0.007-0.011,0.014-0.021,0.021-0.031l10.404-15.188h44.029c-13.432,19.955-36.132,32.331-60.661,32.331 S187.771,217.271,174.339,197.316z"/> <path d="M375.852,122.916C341.457,79.75,290.119,54.992,235,54.992S128.543,79.75,94.148,122.916 c-2.581,3.239-2.047,7.958,1.192,10.54c3.239,2.58,7.958,2.047,10.539-1.192C137.412,92.689,184.475,69.992,235,69.992 s97.588,22.697,129.12,62.271c1.48,1.858,3.665,2.826,5.87,2.826c1.638,0,3.288-0.534,4.669-1.634 C377.898,130.874,378.433,126.155,375.852,122.916z"/> <path d="M385.825,319.11c1.081,0.544,2.231,0.802,3.364,0.802c2.745,0,5.389-1.513,6.706-4.132 c12.683-25.215,19.113-52.394,19.113-80.78s-6.431-55.565-19.113-80.78c-1.861-3.7-6.37-5.193-10.07-3.33 c-3.7,1.861-5.191,6.37-3.33,10.07c11.621,23.104,17.514,48.016,17.514,74.04s-5.893,50.936-17.514,74.04 C380.634,312.74,382.125,317.249,385.825,319.11z"/> <path d="M84.175,150.89c-3.701-1.863-8.21-0.37-10.07,3.33C61.422,179.435,54.991,206.613,54.991,235s6.431,55.565,19.113,80.78 c1.317,2.619,3.961,4.132,6.706,4.132c1.133,0,2.283-0.258,3.364-0.802c3.7-1.861,5.191-6.37,3.33-10.07 C75.884,285.936,69.991,261.024,69.991,235s5.893-50.936,17.514-74.04C89.366,157.26,87.875,152.751,84.175,150.89z"/> <path d="M105.88,337.736c-2.58-3.238-7.299-3.772-10.539-1.192c-3.239,2.582-3.773,7.301-1.192,10.54 c34.395,43.166,85.732,67.924,140.852,67.924s106.457-24.758,140.852-67.924c2.581-3.239,2.047-7.958-1.192-10.54 c-3.239-2.579-7.958-2.047-10.539,1.192c-31.532,39.574-78.595,62.271-129.12,62.271S137.412,377.311,105.88,337.736z"/> <path d="M437.406,244.478c-4.115-0.348-7.751,2.727-8.094,6.855C421.008,351.52,335.655,430,235,430c-107.523,0-195-87.477-195-195 S127.477,40,235,40c102.605,0,188.078,80.132,194.585,182.429c0.263,4.134,3.819,7.296,7.962,7.008 c4.134-0.263,7.271-3.827,7.008-7.961c-3.384-53.207-26.684-102.702-65.604-139.367C339.856,45.281,288.733,25,235,25 C119.206,25,25,119.206,25,235s94.206,210,210,210c53.026,0,103.653-19.818,142.555-55.805 c38.679-35.781,62.369-84.302,66.707-136.623C444.604,248.443,441.534,244.82,437.406,244.478z"/> </g> </g>
</svg>